<svg xmlns="http://www.w3.org/2000/svg" xmlns:xlink="http://www.w3.org/1999/xlink" width="1080" zoomAndPan="magnify" viewBox="0 0 810 809.999993" height="1080" preserveAspectRatio="xMidYMid meet" version="1.0"><defs><g/><clipPath id="f9573456b0"><path d="M 140.1875 81 L 273.113281 81 L 273.113281 213.925781 L 140.1875 213.925781 Z M 140.1875 81 " clip-rule="nonzero"/></clipPath><clipPath id="f107005661"><path d="M 206.652344 81 C 169.945312 81 140.1875 110.757812 140.1875 147.464844 C 140.1875 184.167969 169.945312 213.925781 206.652344 213.925781 C 243.359375 213.925781 273.113281 184.167969 273.113281 147.464844 C 273.113281 110.757812 243.359375 81 206.652344 81 Z M 206.652344 81 " clip-rule="nonzero"/></clipPath><clipPath id="db6858424f"><path d="M 673.417969 537.484375 L 806.34375 537.484375 L 806.34375 670.410156 L 673.417969 670.410156 Z M 673.417969 537.484375 " clip-rule="nonzero"/></clipPath><clipPath id="1b38a4afba"><path d="M 739.882812 537.484375 C 703.175781 537.484375 673.417969 567.238281 673.417969 603.945312 C 673.417969 640.652344 703.175781 670.410156 739.882812 670.410156 C 776.589844 670.410156 806.34375 640.652344 806.34375 603.945312 C 806.34375 567.238281 776.589844 537.484375 739.882812 537.484375 Z M 739.882812 537.484375 " clip-rule="nonzero"/></clipPath></defs><g fill="#672cbc" fill-opacity="1"><g transform="translate(-15.186064, 649.478326)"><g><path d="M 29.390625 -557.625 L 119.109375 -557.625 L 119.109375 0 L 29.390625 0 Z M 29.390625 -557.625 "/></g></g></g><g fill="#672cbc" fill-opacity="1"><g transform="translate(132.526879, 649.478326)"><g><path d="M 28.609375 -379.75 L 119.109375 -379.75 L 119.109375 0 L 28.609375 0 Z M 73.46875 -564.59375 C 89.96875 -564.59375 103.890625 -558.660156 115.234375 -546.796875 C 127.097656 -535.972656 133.03125 -522.050781 133.03125 -505.03125 C 133.03125 -488.53125 127.359375 -474.609375 116.015625 -463.265625 C 104.671875 -451.921875 90.488281 -446.25 73.46875 -446.25 C 57.488281 -446.25 43.566406 -451.789062 31.703125 -462.875 C 19.847656 -473.96875 13.921875 -488.019531 13.921875 -505.03125 C 13.921875 -522.050781 19.59375 -536.234375 30.9375 -547.578125 C 42.28125 -558.921875 56.457031 -564.59375 73.46875 -564.59375 Z M 73.46875 -564.59375 "/></g></g></g><g fill="#672cbc" fill-opacity="1"><g transform="translate(279.466471, 649.478326)"><g><path d="M 29.390625 -397.53125 C 29.390625 -449.601562 44.210938 -490.847656 73.859375 -521.265625 C 103.503906 -551.691406 144.625 -566.90625 197.21875 -566.90625 L 229.703125 -564.59375 L 229.703125 -485.703125 L 204.953125 -488.015625 C 179.691406 -488.015625 159.066406 -481.179688 143.078125 -467.515625 C 127.097656 -453.859375 119.109375 -435.6875 119.109375 -413 L 119.109375 -379.75 L 189.484375 -379.75 L 189.484375 -296.984375 L 119.109375 -296.984375 L 119.109375 0 L 29.390625 0 Z M 29.390625 -397.53125 "/></g></g></g><g fill="#672cbc" fill-opacity="1"><g transform="translate(468.941186, 649.478326)"><g><path d="M 172.46875 2.3125 C 130.707031 2.3125 96.421875 -10.832031 69.609375 -37.125 C 42.796875 -63.414062 29.390625 -98.21875 29.390625 -141.53125 L 29.390625 -486.46875 L 119.109375 -486.46875 L 119.109375 -379.75 L 190.265625 -379.75 L 190.265625 -296.984375 L 119.109375 -296.984375 L 119.109375 -140.765625 C 119.109375 -122.710938 124.78125 -108.015625 136.125 -96.671875 C 147.46875 -85.328125 162.421875 -79.65625 180.984375 -79.65625 L 190.265625 -80.4375 L 190.265625 1.546875 Z M 172.46875 2.3125 "/></g></g></g><g fill="#672cbc" fill-opacity="1"><g transform="translate(659.189257, 649.478326)"><g><path d="M 80.4375 -109.046875 C 96.9375 -109.046875 110.859375 -103.117188 122.203125 -91.265625 C 134.054688 -80.429688 139.984375 -66.507812 139.984375 -49.5 C 139.984375 -33 134.179688 -18.945312 122.578125 -7.34375 C 110.984375 4.25 96.9375 10.046875 80.4375 10.046875 C 63.9375 10.046875 49.753906 4.378906 37.890625 -6.953125 C 32.222656 -12.628906 27.96875 -18.945312 25.125 -25.90625 C 22.289062 -32.863281 20.875 -40.726562 20.875 -49.5 C 20.875 -66 26.675781 -80.046875 38.28125 -91.640625 C 49.882812 -103.242188 63.9375 -109.046875 80.4375 -109.046875 Z M 80.4375 -109.046875 "/></g></g></g><g clip-path="url(#f9573456b0)"><g clip-path="url(#f107005661)"><path fill="#d6fe00" d="M 140.1875 81 L 273.113281 81 L 273.113281 213.925781 L 140.1875 213.925781 Z M 140.1875 81 " fill-opacity="1" fill-rule="nonzero"/></g></g><g clip-path="url(#db6858424f)"><g clip-path="url(#1b38a4afba)"><path fill="#d6fe00" d="M 673.417969 537.484375 L 806.34375 537.484375 L 806.34375 670.410156 L 673.417969 670.410156 Z M 673.417969 537.484375 " fill-opacity="1" fill-rule="nonzero"/></g></g></svg>