<svg xmlns="http://www.w3.org/2000/svg" xmlns:xlink="http://www.w3.org/1999/xlink" width="1080" zoomAndPan="magnify" viewBox="0 0 810 809.999993" height="1080" preserveAspectRatio="xMidYMid meet" version="1.0"><defs><clipPath id="4464799101"><path d="M 43.460938 83 L 766.460938 83 L 766.460938 727 L 43.460938 727 Z M 43.460938 83 " clip-rule="nonzero"/></clipPath></defs><g clip-path="url(#4464799101)"><path fill="#672cbc" d="M 637.6875 291.9375 C 630.210938 289.359375 622.453125 286.917969 614.441406 284.609375 C 615.765625 279.246094 616.980469 273.957031 618.050781 268.753906 C 635.628906 183.324219 624.144531 114.5 584.847656 91.84375 C 547.15625 70.117188 485.542969 92.769531 423.304688 146.929688 C 417.324219 152.136719 411.316406 157.648438 405.335938 163.425781 C 401.328125 159.605469 397.351562 155.910156 393.371094 152.375 C 328.148438 94.46875 262.773438 70.0625 223.519531 92.789062 C 185.875 114.578125 174.726562 179.277344 190.570312 260.238281 C 192.101562 268.058594 193.890625 276.046875 195.910156 284.164062 C 186.660156 286.792969 177.726562 289.589844 169.179688 292.570312 C 92.714844 319.226562 43.882812 361.007812 43.882812 404.351562 C 43.882812 449.09375 96.308594 494.007812 175.949219 521.234375 C 182.230469 523.375 188.753906 525.40625 195.476562 527.328125 C 193.292969 536.101562 191.398438 544.703125 189.804688 553.113281 C 174.699219 632.667969 186.496094 695.835938 224.035156 717.472656 C 262.8125 739.847656 327.894531 716.855469 391.257812 661.472656 C 396.277344 657.101562 401.300781 652.445312 406.320312 647.59375 C 412.867188 653.855469 419.382812 659.808594 425.84375 665.394531 C 487.234375 718.207031 547.859375 739.535156 585.355469 717.839844 C 624.089844 695.414062 636.699219 627.535156 620.335938 544.988281 C 619.097656 538.667969 617.628906 532.234375 616.019531 525.691406 C 620.589844 524.335938 625.078125 522.925781 629.449219 521.484375 C 712.25 494.035156 766.109375 449.714844 766.109375 404.351562 C 766.109375 360.851562 715.695312 318.789062 637.6875 291.9375 Z M 619.746094 492.203125 C 615.796875 493.5 611.734375 494.769531 607.613281 495.984375 C 598.472656 467.066406 586.144531 436.285156 571.023438 404.492188 C 585.4375 373.457031 597.289062 343.085938 606.175781 314.335938 C 613.566406 316.476562 620.730469 318.730469 627.644531 321.109375 C 694.476562 344.117188 735.246094 378.140625 735.246094 404.351562 C 735.246094 432.253906 691.234375 468.503906 619.746094 492.203125 Z M 590.066406 550.96875 C 597.316406 587.472656 598.332031 620.480469 593.535156 646.296875 C 589.246094 669.484375 580.585938 684.945312 569.894531 691.125 C 547.128906 704.300781 498.460938 687.175781 445.988281 642.007812 C 439.949219 636.816406 433.886719 631.285156 427.820312 625.445312 C 448.160156 603.1875 468.5 577.316406 488.363281 548.570312 C 523.261719 545.496094 556.238281 540.417969 586.171875 533.503906 C 587.640625 539.457031 588.9375 545.269531 590.066406 550.96875 Z M 290.117188 688.839844 C 267.878906 696.710938 250.167969 696.9375 239.464844 690.757812 C 216.683594 677.609375 207.210938 626.886719 220.128906 558.867188 C 221.609375 551.082031 223.371094 543.070312 225.402344 534.886719 C 254.984375 541.433594 287.730469 546.144531 322.726562 548.964844 C 342.714844 577.09375 363.648438 602.933594 384.722656 625.558594 C 380.125 630.015625 375.527344 634.25 370.957031 638.226562 C 342.941406 662.742188 314.863281 680.121094 290.117188 688.839844 Z M 185.9375 492.03125 C 150.722656 479.988281 121.640625 464.355469 101.703125 447.261719 C 83.789062 431.941406 74.746094 416.707031 74.746094 404.351562 C 74.746094 378.058594 113.953125 344.503906 179.347656 321.703125 C 187.28125 318.9375 195.585938 316.328125 204.207031 313.878906 C 213.246094 343.277344 225.101562 374.023438 239.40625 405.085938 C 224.914062 436.625 212.890625 467.855469 203.761719 497.621094 C 197.617188 495.839844 191.667969 493.980469 185.9375 492.035156 Z M 220.859375 254.3125 C 207.289062 184.945312 216.300781 132.621094 238.984375 119.488281 C 263.148438 105.503906 316.574219 125.445312 372.875 175.449219 C 376.484375 178.644531 380.097656 181.988281 383.734375 185.449219 C 362.746094 207.980469 342.011719 233.632812 322.199219 261.585938 C 288.234375 264.734375 255.71875 269.792969 225.824219 276.566406 C 223.945312 269.003906 222.28125 261.574219 220.859375 254.3125 Z M 532.375 331.238281 C 525.238281 318.898438 517.902344 306.84375 510.425781 295.121094 C 533.476562 298.035156 555.539062 301.902344 576.273438 306.632812 C 570.066406 326.582031 562.308594 347.4375 553.167969 368.832031 C 546.621094 356.386719 539.683594 343.84375 532.375 331.238281 Z M 405.335938 207.5 C 419.585938 222.917969 433.832031 240.128906 447.851562 258.804688 C 433.71875 258.140625 419.414062 257.792969 405 257.792969 C 390.722656 257.792969 376.53125 258.132812 362.484375 258.789062 C 376.503906 240.285156 390.894531 223.09375 405.335938 207.5 Z M 277.488281 331.453125 C 270.347656 343.832031 263.546875 356.304688 257.097656 368.804688 C 248.117188 347.492188 240.429688 326.539062 234.152344 306.304688 C 254.757812 301.695312 276.730469 297.925781 299.628906 295.066406 C 292.042969 306.898438 284.644531 319.039062 277.488281 331.449219 Z M 300.285156 515.816406 C 276.628906 513.191406 254.324219 509.609375 233.726562 505.125 C 240.101562 484.527344 247.957031 463.144531 257.136719 441.363281 C 263.597656 453.863281 270.425781 466.332031 277.609375 478.746094 C 284.925781 491.382812 292.507812 503.742188 300.285156 515.816406 Z M 406.183594 603.355469 C 391.570312 587.585938 376.984375 570.125 362.738281 551.363281 C 376.5625 551.898438 390.667969 552.179688 405 552.179688 C 419.726562 552.179688 434.28125 551.84375 448.585938 551.222656 C 434.535156 570.320312 420.316406 587.8125 406.183594 603.355469 Z M 553.449219 440.265625 C 563.097656 462.269531 571.25 483.542969 577.710938 503.796875 C 556.777344 508.566406 534.152344 512.402344 510.34375 515.28125 C 517.847656 503.402344 525.238281 491.128906 532.515625 478.519531 C 539.878906 465.769531 546.847656 452.988281 553.449219 440.265625 Z M 505.773438 463.117188 C 494.488281 482.695312 482.890625 501.371094 471.128906 519.003906 C 449.714844 520.527344 427.570312 521.316406 405 521.316406 C 382.515625 521.316406 360.648438 520.640625 339.605469 519.257812 C 327.359375 501.398438 315.523438 482.667969 304.308594 463.285156 L 304.3125 463.285156 C 293.121094 443.960938 282.824219 424.464844 273.496094 405.085938 C 282.820312 385.675781 293.09375 366.152344 304.21875 346.863281 L 304.214844 346.867188 C 315.367188 327.527344 327.105469 308.875 339.238281 291.117188 C 360.707031 289.492188 382.738281 288.644531 405 288.644531 C 427.371094 288.644531 449.40625 289.5 470.875 291.136719 C 482.835938 308.765625 494.488281 327.355469 505.6875 346.699219 C 517 366.265625 527.410156 385.644531 536.804688 404.660156 C 527.4375 423.984375 517.054688 443.566406 505.773438 463.117188 Z M 569.417969 118.5625 C 593.625 132.511719 603.019531 188.757812 587.8125 262.519531 C 586.851562 267.222656 585.753906 272.015625 584.566406 276.875 C 554.605469 269.960938 522.078125 264.816406 488.027344 261.621094 C 468.164062 233.359375 447.597656 207.667969 426.949219 185.425781 C 432.503906 180.089844 438.0625 174.996094 443.566406 170.191406 C 496.886719 123.792969 546.734375 105.472656 569.417969 118.5625 Z M 405 339.84375 C 440.601562 339.84375 469.492188 368.710938 469.492188 404.34375 C 469.492188 439.945312 440.601562 468.835938 405 468.835938 C 369.394531 468.835938 340.507812 439.945312 340.507812 404.34375 C 340.507812 368.710938 369.394531 339.84375 405 339.84375 Z M 405 339.84375 " fill-opacity="1" fill-rule="nonzero"/></g></svg>