<svg xmlns="http://www.w3.org/2000/svg" xmlns:xlink="http://www.w3.org/1999/xlink" width="1080" zoomAndPan="magnify" viewBox="0 0 810 809.999993" height="1080" preserveAspectRatio="xMidYMid meet" version="1.0"><defs><clipPath id="b1bae27736"><path d="M 41.199219 108.5 L 768.699219 108.5 L 768.699219 701 L 41.199219 701 Z M 41.199219 108.5 " clip-rule="nonzero"/></clipPath></defs><g clip-path="url(#b1bae27736)"><path fill="#672cbc" d="M 768.648438 399.953125 C 768.648438 481.015625 702.6875 546.976562 621.625 546.976562 C 615.355469 546.976562 610.285156 541.882812 610.285156 535.613281 C 610.285156 529.339844 615.355469 524.269531 621.625 524.269531 C 690.167969 524.269531 745.941406 468.496094 745.941406 399.953125 C 745.941406 331.414062 690.167969 275.660156 621.625 275.660156 L 621.070312 275.660156 C 616.089844 275.660156 611.6875 272.410156 610.21875 267.652344 C 596.429688 222.972656 555.730469 192.953125 508.917969 192.953125 C 482.410156 192.953125 457.011719 202.804688 437.464844 220.683594 C 434.660156 223.242188 430.769531 224.242188 427.101562 223.332031 C 423.410156 222.441406 420.429688 219.75 419.117188 216.191406 C 400.679688 165.351562 351.933594 131.214844 297.847656 131.214844 C 226.726562 131.214844 168.859375 189.082031 168.859375 260.203125 C 168.859375 273.234375 170.792969 286.066406 174.597656 298.34375 C 175.644531 301.699219 175.0625 305.324219 173.0625 308.21875 C 171.0625 311.085938 167.835938 312.863281 164.324219 313.042969 C 108.101562 315.910156 64.046875 362.28125 64.046875 418.613281 C 64.046875 476.855469 111.460938 524.269531 169.75 524.269531 L 174.996094 524.269531 C 181.269531 524.269531 186.339844 529.339844 186.339844 535.613281 C 186.339844 541.882812 181.269531 546.976562 174.996094 546.976562 L 169.75 546.976562 C 98.941406 546.976562 41.339844 489.398438 41.339844 418.613281 C 41.339844 385.585938 53.972656 354.140625 76.902344 330.101562 C 96.539062 309.527344 121.914062 296.207031 149.46875 291.804688 C 147.265625 281.464844 146.152344 270.878906 146.152344 260.203125 C 146.152344 176.5625 214.207031 108.507812 297.847656 108.507812 C 356.203125 108.507812 409.265625 142.289062 434.371094 194.042969 C 456.054688 178.585938 482.007812 170.246094 508.917969 170.246094 C 536.984375 170.246094 563.648438 179.097656 586.042969 195.886719 C 605.480469 210.453125 620.605469 230.558594 629.230469 253.128906 C 706.78125 257.089844 768.648438 321.449219 768.648438 399.953125 Z M 596.539062 351.003906 L 596.539062 617.808594 C 596.320312 642.070312 574.210938 663.820312 534.292969 679.167969 C 497.753906 693.199219 449.449219 700.914062 398.300781 700.914062 C 347.152344 700.914062 298.847656 693.199219 262.308594 679.167969 C 222.390625 663.84375 200.285156 642.09375 200.039062 617.917969 L 200.039062 350.714844 C 200.285156 326.429688 222.390625 304.679688 262.308594 289.359375 C 298.847656 275.324219 347.152344 267.609375 398.300781 267.609375 C 449.449219 267.609375 497.753906 275.324219 534.292969 289.359375 C 574.210938 304.679688 596.320312 326.453125 596.539062 350.605469 Z M 222.746094 351.003906 C 222.746094 364.792969 240.492188 379.871094 270.226562 391.347656 C 304.25 404.445312 349.730469 411.671875 398.300781 411.671875 C 446.871094 411.671875 492.351562 404.445312 526.375 391.347656 C 556.085938 379.871094 573.835938 364.792969 573.835938 351.003906 L 573.835938 350.714844 C 573.699219 337.015625 555.886719 321.984375 526.152344 310.550781 C 492.148438 297.496094 446.738281 290.316406 398.300781 290.316406 C 349.863281 290.316406 304.453125 297.496094 270.449219 310.550781 C 240.714844 321.984375 222.878906 337.039062 222.746094 350.828125 Z M 573.835938 617.695312 L 573.835938 568.75 C 563.78125 576.820312 550.503906 584.117188 534.292969 590.320312 C 497.753906 604.355469 449.472656 612.09375 398.300781 612.09375 C 347.152344 612.09375 298.847656 604.355469 262.308594 590.320312 C 246.097656 584.09375 232.820312 576.820312 222.746094 568.75 L 222.746094 617.808594 C 222.878906 631.484375 240.714844 646.542969 270.449219 657.949219 C 304.453125 671.027344 349.863281 678.210938 398.300781 678.210938 C 446.738281 678.210938 492.148438 671.027344 526.152344 657.949219 C 555.886719 646.542969 573.699219 631.484375 573.835938 617.695312 Z M 573.835938 528.875 L 573.835938 479.882812 C 563.78125 487.953125 550.503906 495.25 534.292969 501.476562 C 497.753906 515.53125 449.449219 523.269531 398.300781 523.269531 C 347.152344 523.269531 298.847656 515.53125 262.308594 501.476562 C 246.097656 495.25 232.820312 487.953125 222.746094 479.882812 L 222.746094 528.984375 C 222.878906 542.664062 240.714844 557.71875 270.449219 569.125 C 304.453125 582.179688 349.863281 589.386719 398.300781 589.386719 C 446.738281 589.386719 492.148438 582.179688 526.152344 569.125 C 555.886719 557.71875 573.699219 542.664062 573.835938 528.875 Z M 573.835938 440.007812 L 573.835938 391.035156 C 563.828125 399.0625 550.640625 406.3125 534.539062 412.519531 C 497.976562 426.617188 449.585938 434.378906 398.300781 434.378906 C 347.015625 434.378906 298.625 426.617188 262.042969 412.519531 C 245.941406 406.3125 232.753906 399.0625 222.746094 391.035156 L 222.746094 440.117188 C 222.878906 453.792969 240.714844 468.851562 270.449219 480.28125 C 304.453125 493.359375 349.863281 500.542969 398.300781 500.542969 C 446.738281 500.542969 492.148438 493.359375 526.152344 480.28125 C 555.886719 468.851562 573.699219 453.792969 573.835938 440.007812 Z M 533.78125 430.910156 C 499.6875 445.789062 450.320312 454.328125 398.300781 454.328125 C 369.035156 454.328125 341.011719 451.703125 314.992188 446.566406 C 308.832031 445.34375 302.851562 449.347656 301.648438 455.507812 C 300.425781 461.644531 304.429688 467.628906 310.566406 468.851562 C 338.054688 474.277344 367.566406 477.035156 398.300781 477.035156 C 453.320312 477.035156 506.003906 467.804688 542.855469 451.726562 C 548.617188 449.214844 551.238281 442.519531 548.726562 436.78125 C 546.214844 431.023438 539.519531 428.398438 533.78125 430.910156 Z M 533.78125 523.46875 C 499.667969 538.324219 450.273438 546.867188 398.300781 546.867188 C 368.835938 546.867188 340.8125 544.242188 314.992188 539.105469 C 308.855469 537.878906 302.871094 541.863281 301.648438 548.023438 C 300.425781 554.160156 304.40625 560.140625 310.566406 561.367188 C 337.832031 566.8125 367.34375 569.570312 398.300781 569.570312 C 453.277344 569.570312 505.960938 560.363281 542.855469 544.308594 C 548.59375 541.792969 551.238281 535.101562 548.726562 529.363281 C 546.234375 523.601562 539.542969 520.980469 533.78125 523.46875 Z M 533.78125 616.027344 C 499.757812 630.863281 450.363281 639.378906 398.300781 639.378906 C 368.902344 639.378906 340.878906 636.800781 314.992188 631.683594 C 308.832031 630.460938 302.851562 634.464844 301.648438 640.601562 C 300.425781 646.761719 304.429688 652.746094 310.566406 653.945312 C 337.921875 659.351562 367.433594 662.109375 398.300781 662.109375 C 453.386719 662.109375 506.070312 652.878906 542.855469 636.824219 C 548.617188 634.332031 551.238281 627.636719 548.726562 621.878906 C 546.214844 616.140625 539.519531 613.515625 533.78125 616.027344 Z M 264.976562 428.554688 C 256.015625 428.554688 248.71875 435.847656 248.71875 444.808594 C 248.71875 453.773438 256.015625 461.042969 264.976562 461.042969 C 273.941406 461.042969 281.210938 453.773438 281.210938 444.808594 C 281.210938 435.847656 273.941406 428.554688 264.976562 428.554688 Z M 264.976562 519.644531 C 256.015625 519.644531 248.71875 526.9375 248.71875 535.902344 C 248.71875 544.863281 256.015625 552.136719 264.976562 552.136719 C 273.941406 552.136719 281.210938 544.863281 281.210938 535.902344 C 281.210938 526.9375 273.941406 519.644531 264.976562 519.644531 Z M 264.976562 607.265625 C 256.015625 607.265625 248.71875 614.5625 248.71875 623.523438 C 248.71875 632.464844 256.015625 639.757812 264.976562 639.757812 C 273.941406 639.757812 281.210938 632.464844 281.210938 623.523438 C 281.210938 614.5625 273.941406 607.265625 264.976562 607.265625 Z M 264.976562 607.265625 " fill-opacity="1" fill-rule="nonzero"/></g></svg>