<svg xmlns="http://www.w3.org/2000/svg" xmlns:xlink="http://www.w3.org/1999/xlink" width="1080" zoomAndPan="magnify" viewBox="0 0 810 809.999993" height="1080" preserveAspectRatio="xMidYMid meet" version="1.0"><defs><clipPath id="a61761c32c"><path d="M 57.695312 57.695312 L 752.195312 57.695312 L 752.195312 752.195312 L 57.695312 752.195312 Z M 57.695312 57.695312 " clip-rule="nonzero"/></clipPath></defs><g clip-path="url(#a61761c32c)"><path fill="#672cbc" d="M 57.695312 57.695312 L 752.300781 57.695312 L 752.300781 752.300781 L 57.695312 752.300781 Z M 57.695312 57.695312 " fill-opacity="1" fill-rule="nonzero"/></g><path fill="#ffffff" d="M 511.851562 577.625 C 525.203125 599.3125 539.710938 620.09375 570.449219 620.09375 C 596.265625 620.09375 609.808594 607.261719 609.808594 589.511719 C 609.808594 568.269531 595.800781 560.722656 567.398438 548.355469 L 551.828125 541.71875 C 506.890625 522.65625 477.003906 498.769531 477.003906 448.3125 C 477.003906 401.8125 512.601562 366.425781 568.230469 366.425781 C 607.839844 366.425781 636.300781 380.144531 656.828125 416.070312 L 608.324219 447.078125 C 597.652344 428.015625 586.113281 420.507812 568.230469 420.507812 C 549.976562 420.507812 538.417969 432.027344 538.417969 447.078125 C 538.417969 465.679688 549.996094 473.203125 576.71875 484.722656 L 592.289062 491.359375 C 645.253906 513.914062 675.121094 536.953125 675.121094 588.738281 C 675.121094 644.539062 631.050781 675.121094 571.894531 675.121094 C 514.03125 675.121094 481.171875 646.082031 462.878906 610.136719 Z M 288.304688 579.207031 C 298.066406 596.6875 312.902344 610.136719 334.242188 610.136719 C 354.65625 610.136719 366.40625 602.070312 366.40625 570.71875 L 366.40625 366.40625 L 430.714844 366.40625 L 430.714844 580.597656 C 430.714844 645.5625 393.035156 675.121094 338.007812 675.121094 C 288.285156 675.121094 252.394531 641.433594 237.769531 610.136719 Z M 288.304688 579.207031 " fill-opacity="1" fill-rule="nonzero"/></svg>