<svg xmlns="http://www.w3.org/2000/svg" xmlns:xlink="http://www.w3.org/1999/xlink" width="1080" zoomAndPan="magnify" viewBox="0 0 810 809.999993" height="1080" preserveAspectRatio="xMidYMid meet" version="1.0"><defs><clipPath id="fd21aa1480"><path d="M 57.695312 57.695312 L 752.195312 57.695312 L 752.195312 752.195312 L 57.695312 752.195312 Z M 57.695312 57.695312 " clip-rule="nonzero"/></clipPath></defs><g clip-path="url(#fd21aa1480)"><path fill="#672cbc" d="M 57.695312 752.300781 L 752.300781 752.300781 L 752.300781 57.695312 L 57.695312 57.695312 Z M 57.695312 752.300781 " fill-opacity="1" fill-rule="nonzero"/></g><path fill="#ffffff" d="M 211.265625 407.277344 L 211.050781 435.738281 L 301.457031 435.738281 L 301.457031 692.632812 L 365.40625 692.632812 L 365.40625 435.738281 L 455.816406 435.738281 L 455.816406 407.847656 C 455.816406 392.40625 455.484375 379.492188 455.046875 379.167969 C 454.714844 378.730469 399.699219 378.515625 332.984375 378.625 L 211.59375 378.949219 Z M 211.265625 407.277344 " fill-opacity="1" fill-rule="nonzero"/><path fill="#ffffff" d="M 618.179688 378.164062 C 635.816406 382.558594 649.277344 390.398438 661.621094 403.179688 C 667.996094 410.015625 677.492188 422.46875 678.253906 425.457031 C 678.46875 426.351562 648.273438 446.617188 629.957031 457.988281 C 629.304688 458.421875 626.671875 455.546875 623.6875 451.148438 C 614.761719 438.125 605.375 432.511719 591.046875 431.53125 C 569.992188 430.09375 556.425781 441.109375 556.535156 459.535156 C 556.535156 464.933594 557.320312 468.136719 559.519531 472.53125 C 564.160156 482.136719 572.761719 487.859375 599.757812 499.554688 C 649.492188 520.9375 670.765625 535.046875 684.003906 555.125 C 698.765625 577.507812 702.078125 613.214844 692.039062 639.777344 C 681.019531 668.675781 653.671875 688.292969 615.195312 694.804688 C 603.285156 696.894531 575.066406 696.570312 562.261719 694.261719 C 534.367188 689.296875 507.914062 675.511719 491.605469 657.441406 C 485.203125 650.386719 472.75 631.964844 473.507812 630.636719 C 473.859375 630.199219 476.710938 628.4375 479.910156 626.566406 C 483.003906 624.800781 494.699219 618.074219 505.714844 611.667969 L 525.65625 600.109375 L 529.863281 606.269531 C 535.695312 615.195312 548.503906 627.433594 556.210938 631.53125 C 578.378906 643.199219 608.792969 641.542969 623.796875 628.113281 C 630.199219 622.25 632.832031 616.199219 632.832031 607.273438 C 632.832031 599.214844 631.855469 595.6875 627.652344 589.636719 C 622.25 581.90625 611.234375 575.390625 579.921875 561.851562 C 544.082031 546.414062 528.640625 536.808594 514.53125 521.585938 C 506.367188 512.769531 498.660156 498.660156 495.457031 486.855469 C 492.800781 477.0625 492.148438 452.480469 494.238281 442.550781 C 501.644531 407.925781 527.773438 383.777344 565.460938 376.617188 C 577.699219 374.308594 606.160156 375.179688 618.179688 378.164062 Z M 618.179688 378.164062 " fill-opacity="1" fill-rule="nonzero"/></svg>