<svg xmlns="http://www.w3.org/2000/svg" xmlns:xlink="http://www.w3.org/1999/xlink" width="1080" zoomAndPan="magnify" viewBox="0 0 810 809.999993" height="1080" preserveAspectRatio="xMidYMid meet" version="1.0"><defs><clipPath id="a52368426b"><path d="M 91.054688 48 L 718.804688 48 L 718.804688 762 L 91.054688 762 Z M 91.054688 48 " clip-rule="nonzero"/></clipPath></defs><g clip-path="url(#a52368426b)"><path fill="#672cbc" d="M 148.054688 690.042969 L 90.875 48.769531 L 719.121094 48.769531 L 661.898438 689.953125 L 404.597656 761.246094 Z M 148.054688 690.042969 " fill-opacity="1" fill-rule="nonzero"/></g><path fill="#672cbc" d="M 612.894531 649.117188 L 661.8125 101.203125 L 405 101.203125 L 405 706.761719 Z M 612.894531 649.117188 " fill-opacity="1" fill-rule="nonzero"/><path fill="#ffffff" d="M 404.730469 179.847656 L 207.769531 179.847656 L 228.988281 417.6875 L 405 417.6875 L 405 339.046875 L 300.929688 339.046875 L 293.738281 258.511719 L 405 258.511719 L 405 179.847656 Z M 405 543.042969 L 404.664062 543.132812 L 317.070312 519.488281 L 311.503906 456.765625 L 232.507812 456.765625 L 243.527344 580.25 L 404.644531 624.78125 L 405 624.667969 Z M 405 543.042969 " fill-opacity="1" fill-rule="nonzero"/><path fill="#ffffff" d="M 404.730469 417.6875 L 501.585938 417.6875 L 492.679688 519.664062 L 404.953125 543.332031 L 404.953125 625.160156 L 566.203125 580.472656 L 587.800781 339 L 405 339 Z M 599.867188 200.953125 L 601.738281 179.847656 L 404.6875 179.847656 L 404.6875 258.488281 L 594.65625 258.488281 L 596.214844 240.808594 Z M 599.867188 200.953125 " fill-opacity="1" fill-rule="nonzero"/></svg>