<svg xmlns="http://www.w3.org/2000/svg" xmlns:xlink="http://www.w3.org/1999/xlink" width="1080" zoomAndPan="magnify" viewBox="0 0 810 809.999993" height="1080" preserveAspectRatio="xMidYMid meet" version="1.0"><defs><clipPath id="5b8296beb9"><path d="M 91.054688 54.222656 L 718.804688 54.222656 L 718.804688 755.472656 L 91.054688 755.472656 Z M 91.054688 54.222656 " clip-rule="nonzero"/></clipPath></defs><g clip-path="url(#5b8296beb9)"><path fill="#672cbc" d="M 718.851562 54.222656 L 91.144531 54.222656 L 146.53125 681.929688 L 405 755.777344 L 663.464844 681.929688 Z M 718.851562 54.222656 " fill-opacity="1" fill-rule="nonzero"/></g><path fill="#672cbc" d="M 405 109.609375 L 405 698.542969 L 611.773438 639.464844 L 657.929688 109.609375 Z M 405 109.609375 " fill-opacity="1" fill-rule="nonzero"/><path fill="#ffffff" d="M 573.003906 201.917969 L 405 201.917969 L 405 275.765625 L 495.460938 275.765625 L 489.925781 349.613281 L 405 349.613281 L 405 423.460938 L 486.230469 423.460938 L 480.691406 506.539062 L 405 532.386719 L 405 609.925781 L 550.847656 561.925781 L 563.773438 349.613281 Z M 573.003906 201.917969 " fill-opacity="1" fill-rule="nonzero"/><path fill="#ffffff" d="M 405 201.917969 L 405 275.765625 L 240.6875 275.765625 L 235.148438 201.917969 Z M 320.074219 349.613281 L 323.765625 423.460938 L 405 423.460938 L 405 349.613281 Z M 327.457031 460.386719 L 253.609375 460.386719 L 259.148438 561.925781 L 405 609.925781 L 405 532.386719 L 329.304688 506.539062 Z M 327.457031 460.386719 " fill-opacity="1" fill-rule="nonzero"/></svg>