<svg xmlns="http://www.w3.org/2000/svg" xmlns:xlink="http://www.w3.org/1999/xlink" width="1080" zoomAndPan="magnify" viewBox="0 0 810 809.999993" height="1080" preserveAspectRatio="xMidYMid meet" version="1.0"><path fill="#672cbc" d="M 376.011719 68.078125 C 393.265625 58.308594 415.261719 58.265625 432.082031 68.078125 L 689.664062 213.277344 C 705.773438 222.335938 716.558594 240.300781 716.40625 258.871094 L 716.40625 550.007812 C 716.515625 569.351562 704.675781 587.703125 687.679688 596.589844 L 431.480469 741.125 C 429.300781 742.328125 427.046875 743.382812 424.726562 744.289062 C 422.402344 745.195312 420.03125 745.941406 417.613281 746.53125 C 415.191406 747.117188 412.742188 747.542969 410.261719 747.808594 C 407.785156 748.070312 405.300781 748.164062 402.808594 748.097656 C 400.316406 748.027344 397.84375 747.792969 395.382812 747.394531 C 392.921875 746.996094 390.5 746.4375 388.117188 745.714844 C 385.730469 744.992188 383.40625 744.113281 381.136719 743.082031 C 378.867188 742.050781 376.679688 740.871094 374.566406 739.550781 L 297.6875 695.125 C 292.445312 691.996094 286.558594 689.515625 282.847656 684.449219 C 286.125 680.050781 291.949219 679.488281 296.695312 677.546875 C 307.390625 674.140625 317.179688 668.921875 327.015625 663.398438 C 329.496094 661.675781 332.535156 662.320312 334.910156 663.875 L 400.46875 701.789062 C 405.148438 704.484375 409.894531 700.925781 413.902344 698.660156 L 665.46875 556.691406 C 668.574219 555.183594 670.300781 551.90625 670.039062 548.496094 L 670.039062 260.164062 C 670.386719 256.28125 668.164062 252.746094 664.648438 251.171875 L 409.09375 107.261719 C 408.359375 106.753906 407.5625 106.363281 406.707031 106.097656 C 405.855469 105.828125 404.980469 105.695312 404.082031 105.691406 C 403.1875 105.691406 402.3125 105.820312 401.457031 106.085938 C 400.601562 106.347656 399.804688 106.734375 399.066406 107.238281 L 143.878906 251.449219 C 140.429688 253.023438 138.054688 256.519531 138.488281 260.402344 L 138.488281 548.734375 C 138.183594 552.140625 139.996094 555.355469 143.125 556.820312 L 211.316406 595.316406 C 224.125 602.21875 239.847656 606.101562 253.949219 601.03125 C 255.484375 600.453125 256.964844 599.761719 258.394531 598.960938 C 259.824219 598.15625 261.183594 597.25 262.476562 596.238281 C 263.765625 595.230469 264.972656 594.128906 266.097656 592.933594 C 267.222656 591.738281 268.25 590.46875 269.179688 589.117188 C 270.109375 587.769531 270.933594 586.355469 271.648438 584.878906 C 272.363281 583.40625 272.960938 581.886719 273.445312 580.320312 C 273.929688 578.753906 274.292969 577.160156 274.535156 575.539062 C 274.777344 573.914062 274.898438 572.285156 274.890625 570.644531 L 274.957031 284.035156 C 274.652344 279.789062 278.664062 276.273438 282.785156 276.703125 L 315.5625 276.703125 C 319.878906 276.597656 323.261719 281.167969 322.679688 285.4375 L 322.617188 573.859375 C 322.636719 599.480469 312.113281 627.34375 288.414062 639.914062 C 259.210938 655.011719 223.109375 651.839844 194.257812 637.328125 L 120.933594 596.785156 C 103.679688 588.15625 92.097656 569.523438 92.207031 550.203125 L 92.207031 259.0625 C 92.226562 256.707031 92.398438 254.363281 92.730469 252.03125 C 93.058594 249.699219 93.542969 247.402344 94.179688 245.132812 C 94.8125 242.867188 95.597656 240.648438 96.53125 238.488281 C 97.460938 236.324219 98.53125 234.230469 99.742188 232.210938 C 100.953125 230.191406 102.289062 228.257812 103.757812 226.417969 C 105.222656 224.574219 106.808594 222.835938 108.503906 221.207031 C 110.203125 219.574219 112.003906 218.0625 113.902344 216.671875 C 115.804688 215.277344 117.785156 214.019531 119.855469 212.890625 Z M 450.285156 269.890625 C 487.53125 267.734375 527.40625 268.464844 560.917969 286.820312 C 586.863281 300.878906 601.246094 330.382812 601.71875 359.238281 C 600.988281 363.117188 596.933594 365.273438 593.222656 364.996094 C 582.441406 364.972656 571.613281 365.144531 560.789062 364.929688 C 556.195312 365.101562 553.542969 360.875 552.960938 356.820312 C 549.855469 343.019531 542.328125 329.367188 529.34375 322.703125 C 509.417969 312.71875 486.300781 313.214844 464.5625 313.429688 C 448.6875 314.292969 431.632812 315.652344 418.195312 324.96875 C 407.84375 332.042969 404.738281 346.535156 408.425781 357.792969 C 411.875 366.050781 421.429688 368.703125 429.214844 371.164062 C 474.117188 382.894531 521.667969 381.945312 565.726562 397.191406 C 583.949219 403.488281 601.785156 415.738281 608.039062 434.824219 C 616.191406 460.402344 612.632812 490.980469 594.453125 511.511719 C 579.703125 528.421875 558.222656 537.390625 536.765625 542.609375 C 508.234375 548.972656 478.644531 549.125 449.679688 546.277344 C 422.445312 543.171875 394.105469 536.011719 373.078125 517.464844 C 355.09375 501.851562 346.339844 477.523438 347.199219 454.0625 C 347.417969 450.09375 351.363281 447.332031 355.179688 447.65625 L 387.527344 447.65625 C 391.886719 447.355469 395.078125 451.105469 395.292969 455.203125 C 397.296875 468.144531 402.238281 482.160156 413.710938 489.710938 C 435.835938 503.984375 463.589844 502.992188 488.910156 503.402344 C 509.894531 502.476562 533.441406 502.195312 550.585938 488.308594 C 559.644531 480.394531 562.296875 467.171875 559.859375 455.785156 C 557.207031 446.167969 546.921875 441.703125 538.296875 438.535156 C 493.976562 424.515625 445.886719 429.605469 402 413.734375 C 384.1875 407.4375 366.957031 395.53125 360.117188 377.222656 C 350.566406 351.34375 354.941406 319.273438 375.0625 299.433594 C 394.472656 279.703125 422.941406 272.089844 449.898438 269.371094 Z M 450.285156 269.890625 " fill-opacity="1" fill-rule="nonzero"/></svg>