<svg xmlns="http://www.w3.org/2000/svg" xmlns:xlink="http://www.w3.org/1999/xlink" width="1080" zoomAndPan="magnify" viewBox="0 0 810 809.999993" height="1080" preserveAspectRatio="xMidYMid meet" version="1.0"><defs><clipPath id="1fed929911"><path d="M 88.835938 64 L 716 64 L 716 746 L 88.835938 746 Z M 88.835938 64 " clip-rule="nonzero"/></clipPath></defs><g clip-path="url(#1fed929911)"><path fill="#672cbc" d="M 375.039062 64.308594 C 203.851562 64.308594 88.835938 127.71875 88.835938 186.929688 C 88.835938 246.171875 203.851562 309.605469 375.039062 309.605469 C 546.214844 309.605469 661.191406 246.171875 661.191406 186.929688 C 661.191406 127.71875 546.214844 64.308594 375.039062 64.308594 Z M 88.835938 249.773438 L 88.835938 325.285156 C 88.835938 383.527344 203.851562 445.882812 375.039062 445.882812 C 546.214844 445.882812 661.191406 383.527344 661.191406 325.285156 L 661.191406 249.773438 C 611.152344 300.929688 503.289062 336.863281 375.039062 336.863281 C 246.761719 336.863281 138.886719 300.917969 88.835938 249.773438 Z M 88.835938 390.148438 L 88.835938 462.171875 C 88.835938 509.242188 164.027344 558.574219 283.238281 575.769531 L 284.570312 568.53125 L 379.9375 568.53125 C 396.644531 568.53125 411.46875 572.773438 423.75 580.269531 C 425.207031 580.160156 426.695312 580.085938 428.140625 579.976562 L 441.925781 514.019531 L 533.355469 514.019531 L 522.8125 564.511719 C 608.996094 542.027344 661.191406 501.335938 661.191406 462.171875 L 661.191406 390.148438 C 611.152344 441.277344 503.289062 473.136719 375.039062 473.136719 C 246.761719 473.136719 138.886719 441.277344 88.835938 390.148438 Z M 88.835938 527.035156 L 88.835938 597.835938 C 88.835938 641.621094 153.871094 687.726562 258.886719 707.921875 L 278.210938 603 C 193.757812 591.429688 125.640625 564.648438 88.835938 527.035156 Z M 661.191406 527.035156 C 645.671875 542.898438 624.566406 556.839844 599.042969 568.53125 L 661.191406 568.53125 Z M 464.070312 541.277344 L 429.894531 704.804688 L 465.667969 704.804688 L 482.941406 623.042969 L 511.527344 623.042969 C 520.644531 623.042969 526.660156 624.554688 529.46875 627.566406 C 532.261719 630.605469 532.875 636.339844 531.25 644.625 L 518.210938 704.804688 L 554.542969 704.804688 L 568.675781 639.703125 C 571.714844 624.097656 569.425781 612.636719 561.859375 605.6875 C 554.160156 598.628906 540.574219 595.785156 520.339844 595.785156 L 488.453125 595.785156 L 499.816406 541.277344 Z M 307.25 595.785156 L 279.621094 745.6875 L 315.683594 745.6875 L 322.871094 704.804688 L 345.28125 704.804688 C 392.242188 704.804688 417.816406 693.933594 427.367188 653.625 C 435.585938 618.996094 414.578125 595.785156 379.9375 595.785156 Z M 593.425781 595.785156 L 565.800781 745.6875 L 601.863281 745.6875 L 609.050781 704.804688 L 631.460938 704.804688 C 678.421875 704.804688 703.996094 693.933594 713.546875 653.625 C 721.765625 618.996094 700.757812 595.785156 666.117188 595.785156 Z M 338.230469 623.042969 L 366.308594 623.042969 C 389.585938 623.042969 394.484375 633.535156 393.273438 645.210938 C 390.152344 675.273438 371.414062 677.550781 351.246094 677.550781 L 327.957031 677.550781 Z M 624.410156 623.042969 L 652.488281 623.042969 C 675.765625 623.042969 680.664062 633.535156 679.453125 645.210938 C 676.332031 675.273438 657.59375 677.550781 637.425781 677.550781 L 614.136719 677.550781 Z M 624.410156 623.042969 " fill-opacity="1" fill-rule="nonzero"/></g></svg>