<svg xmlns="http://www.w3.org/2000/svg" xmlns:xlink="http://www.w3.org/1999/xlink" width="1080" zoomAndPan="magnify" viewBox="0 0 810 809.999993" height="1080" preserveAspectRatio="xMidYMid meet" version="1.0"><defs><clipPath id="ee4d15a54c"><path d="M 102.714844 27.140625 L 707.214844 27.140625 L 707.214844 783 L 102.714844 783 Z M 102.714844 27.140625 " clip-rule="nonzero"/></clipPath></defs><g clip-path="url(#ee4d15a54c)"><path fill="#d6fe00" d="M 520.792969 27.824219 L 204.097656 27.824219 C 148.128906 27.824219 102.589844 73.363281 102.589844 129.335938 L 102.589844 680.652344 C 102.589844 736.625 148.128906 782.164062 204.097656 782.164062 L 605.914062 782.164062 C 661.878906 782.164062 707.417969 736.632812 707.417969 680.652344 L 707.417969 236.410156 Z M 535.585938 124.601562 L 620.84375 219.886719 L 535.585938 219.886719 Z M 605.90625 728.664062 L 204.097656 728.664062 C 177.625 728.664062 156.089844 707.128906 156.089844 680.652344 L 156.089844 129.335938 C 156.089844 102.859375 177.625 81.328125 204.097656 81.328125 L 482.085938 81.328125 L 482.085938 273.378906 L 653.914062 273.378906 L 653.914062 680.652344 C 653.90625 707.128906 632.371094 728.664062 605.90625 728.664062 Z M 605.90625 728.664062 " fill-opacity="1" fill-rule="nonzero"/></g><path fill="#d6fe00" d="M 213.515625 568.628906 L 596.472656 568.628906 L 596.472656 622.132812 L 213.515625 622.132812 Z M 213.515625 568.628906 " fill-opacity="1" fill-rule="nonzero"/><path fill="#d6fe00" d="M 213.515625 452.371094 L 596.472656 452.371094 L 596.472656 505.871094 L 213.515625 505.871094 Z M 213.515625 452.371094 " fill-opacity="1" fill-rule="nonzero"/><path fill="#d6fe00" d="M 213.515625 336.128906 L 596.472656 336.128906 L 596.472656 389.632812 L 213.515625 389.632812 Z M 213.515625 336.128906 " fill-opacity="1" fill-rule="nonzero"/></svg>