<svg xmlns="http://www.w3.org/2000/svg" xmlns:xlink="http://www.w3.org/1999/xlink" width="1080" zoomAndPan="magnify" viewBox="0 0 810 809.999993" height="1080" preserveAspectRatio="xMidYMid meet" version="1.0"><path fill="#d6fe00" d="M 506.464844 274.96875 C 505.503906 275.929688 504.410156 276.773438 503.171875 277.472656 C 495.769531 281.683594 486.355469 279.09375 482.152344 271.691406 C 475.332031 259.6875 466.875 248.605469 457.015625 238.746094 C 450.996094 232.726562 450.996094 222.96875 457.015625 216.945312 C 463.035156 210.925781 472.800781 210.925781 478.820312 216.945312 C 490.636719 228.761719 500.773438 242.050781 508.957031 256.453125 C 512.464844 262.625 511.253906 270.1875 506.464844 274.96875 " fill-opacity="1" fill-rule="nonzero"/><path fill="#d6fe00" d="M 429.371094 204.351562 C 424.945312 208.773438 418.082031 210.21875 412.058594 207.46875 C 376.082031 191.03125 334.011719 189.132812 296.625 202.261719 C 288.59375 205.085938 279.789062 200.855469 276.972656 192.824219 C 274.148438 184.789062 278.382812 175.988281 286.410156 173.167969 C 331.902344 157.195312 381.078125 159.414062 424.867188 179.421875 C 432.617188 182.960938 436.027344 192.105469 432.488281 199.851562 C 431.703125 201.574219 430.628906 203.085938 429.371094 204.351562 " fill-opacity="1" fill-rule="nonzero"/><path fill="#d6fe00" d="M 553.449219 347.882812 C 553.449219 402.789062 532.0625 454.410156 493.234375 493.238281 C 454.410156 532.0625 402.789062 553.449219 347.882812 553.449219 C 292.972656 553.449219 241.351562 532.0625 202.527344 493.238281 C 163.699219 454.410156 142.3125 402.789062 142.3125 347.882812 C 142.3125 292.972656 163.699219 241.351562 202.527344 202.527344 C 241.351562 163.699219 292.972656 142.3125 347.882812 142.3125 C 402.789062 142.3125 454.410156 163.699219 493.234375 202.527344 C 532.0625 241.351562 553.449219 292.972656 553.449219 347.882812 Z M 166.1875 166.1875 C 65.839844 266.53125 65.839844 429.230469 166.1875 529.574219 C 262.460938 625.851562 416.121094 629.738281 517.050781 541.277344 L 526.789062 551.011719 C 523.746094 562.4375 526.671875 575.125 535.632812 584.082031 L 682.292969 730.742188 C 695.675781 744.125 717.363281 744.125 730.746094 730.742188 C 744.125 717.363281 744.125 695.667969 730.746094 682.292969 L 584.085938 535.632812 C 575.125 526.671875 562.4375 523.742188 551.015625 526.789062 L 541.277344 517.050781 C 629.746094 416.121094 625.855469 262.460938 529.574219 166.1875 C 429.230469 65.839844 266.53125 65.839844 166.1875 166.1875 " fill-opacity="1" fill-rule="nonzero"/></svg>