<svg xmlns="http://www.w3.org/2000/svg" xmlns:xlink="http://www.w3.org/1999/xlink" width="1080" zoomAndPan="magnify" viewBox="0 0 810 809.999993" height="1080" preserveAspectRatio="xMidYMid meet" version="1.0"><defs><clipPath id="6ab7c870cd"><path d="M 294 144 L 520 144 L 520 670.996094 L 294 670.996094 Z M 294 144 " clip-rule="nonzero"/></clipPath></defs><path fill="#d6fe00" d="M 217.847656 595.890625 C 206.617188 595.890625 199.132812 592.144531 191.644531 584.660156 L 41.925781 434.941406 C 26.953125 419.96875 26.953125 397.511719 41.925781 382.539062 L 191.644531 232.820312 C 206.617188 217.847656 229.074219 217.847656 244.046875 232.820312 C 259.019531 247.792969 259.019531 270.25 244.046875 285.222656 L 120.527344 408.738281 L 244.046875 532.257812 C 259.019531 547.230469 259.019531 569.6875 244.046875 584.660156 C 236.5625 592.144531 229.074219 595.890625 217.847656 595.890625 Z M 217.847656 595.890625 " fill-opacity="1" fill-rule="nonzero"/><path fill="#d6fe00" d="M 592.144531 595.890625 C 580.917969 595.890625 573.429688 592.144531 565.945312 584.660156 C 550.972656 569.6875 550.972656 547.230469 565.945312 532.257812 L 689.460938 408.738281 L 565.945312 285.222656 C 550.972656 270.25 550.972656 247.792969 565.945312 232.820312 C 580.917969 217.847656 603.375 217.847656 618.347656 232.820312 L 768.066406 382.539062 C 783.039062 397.511719 783.039062 419.96875 768.066406 434.941406 L 618.347656 584.660156 C 610.859375 592.144531 603.375 595.890625 592.144531 595.890625 Z M 592.144531 595.890625 " fill-opacity="1" fill-rule="nonzero"/><g clip-path="url(#6ab7c870cd)"><path fill="#d6fe00" d="M 330.136719 670.75 C 326.394531 670.75 322.648438 670.75 318.90625 667.003906 C 300.191406 659.519531 288.964844 640.804688 296.449219 618.347656 L 446.167969 169.1875 C 453.65625 150.472656 472.371094 139.246094 494.828125 146.730469 C 513.542969 154.214844 524.773438 172.933594 517.285156 195.390625 L 367.566406 644.546875 C 360.082031 659.519531 345.109375 670.75 330.136719 670.75 Z M 330.136719 670.75 " fill-opacity="1" fill-rule="nonzero"/></g></svg>