<svg xmlns="http://www.w3.org/2000/svg" xmlns:xlink="http://www.w3.org/1999/xlink" width="1080" zoomAndPan="magnify" viewBox="0 0 810 809.999993" height="1080" preserveAspectRatio="xMidYMid meet" version="1.0"><defs><g/><clipPath id="d2e94d858b"><path d="M 142.269531 109.484375 L 275.421875 109.484375 L 275.421875 242.636719 L 142.269531 242.636719 Z M 142.269531 109.484375 " clip-rule="nonzero"/></clipPath><clipPath id="910a67b3d3"><path d="M 208.847656 109.484375 C 172.078125 109.484375 142.269531 139.289062 142.269531 176.058594 C 142.269531 212.828125 172.078125 242.636719 208.847656 242.636719 C 245.617188 242.636719 275.421875 212.828125 275.421875 176.058594 C 275.421875 139.289062 245.617188 109.484375 208.847656 109.484375 Z M 208.847656 109.484375 " clip-rule="nonzero"/></clipPath><clipPath id="5c9f256ebf"><path d="M 676.414062 566.75 L 809.566406 566.75 L 809.566406 699.902344 L 676.414062 699.902344 Z M 676.414062 566.75 " clip-rule="nonzero"/></clipPath><clipPath id="f75637c6e6"><path d="M 742.992188 566.75 C 706.222656 566.75 676.414062 596.554688 676.414062 633.324219 C 676.414062 670.09375 706.222656 699.902344 742.992188 699.902344 C 779.761719 699.902344 809.566406 670.09375 809.566406 633.324219 C 809.566406 596.554688 779.761719 566.75 742.992188 566.75 Z M 742.992188 566.75 " clip-rule="nonzero"/></clipPath></defs><g fill="#672cbc" fill-opacity="1"><g transform="translate(-13.371362, 678.935289)"><g><path d="M 29.4375 -558.578125 L 119.3125 -558.578125 L 119.3125 0 L 29.4375 0 Z M 29.4375 -558.578125 "/></g></g></g><g fill="#672cbc" fill-opacity="1"><g transform="translate(134.59467, 678.935289)"><g><path d="M 28.671875 -380.390625 L 119.3125 -380.390625 L 119.3125 0 L 28.671875 0 Z M 73.59375 -565.5625 C 90.125 -565.5625 104.070312 -559.617188 115.4375 -547.734375 C 127.3125 -536.890625 133.25 -522.945312 133.25 -505.90625 C 133.25 -489.375 127.566406 -475.425781 116.203125 -464.0625 C 104.847656 -452.695312 90.644531 -447.015625 73.59375 -447.015625 C 57.582031 -447.015625 43.632812 -452.566406 31.75 -463.671875 C 19.875 -474.773438 13.9375 -488.851562 13.9375 -505.90625 C 13.9375 -522.945312 19.617188 -537.148438 30.984375 -548.515625 C 42.347656 -559.878906 56.550781 -565.5625 73.59375 -565.5625 Z M 73.59375 -565.5625 "/></g></g></g><g fill="#672cbc" fill-opacity="1"><g transform="translate(281.786025, 678.935289)"><g><path d="M 29.4375 -398.21875 C 29.4375 -450.382812 44.285156 -491.703125 73.984375 -522.171875 C 103.679688 -552.640625 144.875 -567.875 197.5625 -567.875 L 230.09375 -565.5625 L 230.09375 -486.53125 L 205.296875 -488.859375 C 179.992188 -488.859375 159.335938 -482.015625 143.328125 -468.328125 C 127.316406 -454.640625 119.3125 -436.429688 119.3125 -413.703125 L 119.3125 -380.390625 L 189.8125 -380.390625 L 189.8125 -297.5 L 119.3125 -297.5 L 119.3125 0 L 29.4375 0 Z M 29.4375 -398.21875 "/></g></g></g><g fill="#672cbc" fill-opacity="1"><g transform="translate(471.585383, 678.935289)"><g><path d="M 172.765625 2.328125 C 130.929688 2.328125 96.582031 -10.84375 69.71875 -37.1875 C 42.863281 -63.53125 29.4375 -98.394531 29.4375 -141.78125 L 29.4375 -487.3125 L 119.3125 -487.3125 L 119.3125 -380.390625 L 190.578125 -380.390625 L 190.578125 -297.5 L 119.3125 -297.5 L 119.3125 -141 C 119.3125 -122.925781 124.988281 -108.207031 136.34375 -96.84375 C 147.707031 -85.476562 162.6875 -79.796875 181.28125 -79.796875 L 190.578125 -80.578125 L 190.578125 1.546875 Z M 172.765625 2.328125 "/></g></g></g><g fill="#672cbc" fill-opacity="1"><g transform="translate(662.159421, 678.935289)"><g><path d="M 80.578125 -109.234375 C 97.097656 -109.234375 111.039062 -103.296875 122.40625 -91.421875 C 134.289062 -80.578125 140.234375 -66.628906 140.234375 -49.578125 C 140.234375 -33.054688 134.421875 -18.984375 122.796875 -7.359375 C 111.171875 4.265625 97.097656 10.078125 80.578125 10.078125 C 64.046875 10.078125 49.84375 4.394531 37.96875 -6.96875 C 32.28125 -12.65625 28.015625 -18.984375 25.171875 -25.953125 C 22.335938 -32.921875 20.921875 -40.796875 20.921875 -49.578125 C 20.921875 -66.109375 26.726562 -80.179688 38.34375 -91.796875 C 49.96875 -103.421875 64.046875 -109.234375 80.578125 -109.234375 Z M 80.578125 -109.234375 "/></g></g></g><g clip-path="url(#d2e94d858b)"><g clip-path="url(#910a67b3d3)"><path fill="#672cbc" d="M 142.269531 109.484375 L 275.421875 109.484375 L 275.421875 242.636719 L 142.269531 242.636719 Z M 142.269531 109.484375 " fill-opacity="1" fill-rule="nonzero"/></g></g><g clip-path="url(#5c9f256ebf)"><g clip-path="url(#f75637c6e6)"><path fill="#672cbc" d="M 676.414062 566.75 L 809.566406 566.75 L 809.566406 699.902344 L 676.414062 699.902344 Z M 676.414062 566.75 " fill-opacity="1" fill-rule="nonzero"/></g></g></svg>