<svg xmlns="http://www.w3.org/2000/svg" xmlns:xlink="http://www.w3.org/1999/xlink" width="1080" zoomAndPan="magnify" viewBox="0 0 810 809.999993" height="1080" preserveAspectRatio="xMidYMid meet" version="1.0"><defs><g/><clipPath id="13249ba86c"><path d="M 157.511719 126.628906 L 282.941406 126.628906 L 282.941406 252.058594 L 157.511719 252.058594 Z M 157.511719 126.628906 " clip-rule="nonzero"/></clipPath><clipPath id="4a3ed41f97"><path d="M 220.226562 126.628906 C 185.589844 126.628906 157.511719 154.707031 157.511719 189.34375 C 157.511719 223.980469 185.589844 252.058594 220.226562 252.058594 C 254.863281 252.058594 282.941406 223.980469 282.941406 189.34375 C 282.941406 154.707031 254.863281 126.628906 220.226562 126.628906 Z M 220.226562 126.628906 " clip-rule="nonzero"/></clipPath><clipPath id="b6b88225d7"><path d="M 660.667969 557.363281 L 786.09375 557.363281 L 786.09375 682.792969 L 660.667969 682.792969 Z M 660.667969 557.363281 " clip-rule="nonzero"/></clipPath><clipPath id="1f7be50a3e"><path d="M 723.378906 557.363281 C 688.746094 557.363281 660.667969 585.441406 660.667969 620.078125 C 660.667969 654.714844 688.746094 682.792969 723.378906 682.792969 C 758.015625 682.792969 786.09375 654.714844 786.09375 620.078125 C 786.09375 585.441406 758.015625 557.363281 723.378906 557.363281 Z M 723.378906 557.363281 " clip-rule="nonzero"/></clipPath></defs><g fill="#ffffff" fill-opacity="1"><g transform="translate(10.902069, 663.041903)"><g><path d="M 27.734375 -526.171875 L 112.390625 -526.171875 L 112.390625 0 L 27.734375 0 Z M 27.734375 -526.171875 "/></g></g></g><g fill="#ffffff" fill-opacity="1"><g transform="translate(150.283284, 663.041903)"><g><path d="M 27 -358.328125 L 112.390625 -358.328125 L 112.390625 0 L 27 0 Z M 69.328125 -532.734375 C 84.898438 -532.734375 98.035156 -527.140625 108.734375 -515.953125 C 119.921875 -505.734375 125.515625 -492.597656 125.515625 -476.546875 C 125.515625 -460.972656 120.160156 -447.832031 109.453125 -437.125 C 98.753906 -426.425781 85.378906 -421.078125 69.328125 -421.078125 C 54.242188 -421.078125 41.109375 -426.304688 29.921875 -436.765625 C 18.734375 -447.234375 13.140625 -460.492188 13.140625 -476.546875 C 13.140625 -492.597656 18.488281 -505.972656 29.1875 -516.671875 C 39.894531 -527.378906 53.273438 -532.734375 69.328125 -532.734375 Z M 69.328125 -532.734375 "/></g></g></g><g fill="#ffffff" fill-opacity="1"><g transform="translate(288.934769, 663.041903)"><g><path d="M 27.734375 -375.109375 C 27.734375 -424.242188 41.71875 -463.160156 69.6875 -491.859375 C 97.664062 -520.566406 136.46875 -534.921875 186.09375 -534.921875 L 216.75 -532.734375 L 216.75 -458.296875 L 193.390625 -460.484375 C 169.546875 -460.484375 150.082031 -454.035156 135 -441.140625 C 119.925781 -428.253906 112.390625 -411.109375 112.390625 -389.703125 L 112.390625 -358.328125 L 178.796875 -358.328125 L 178.796875 -280.234375 L 112.390625 -280.234375 L 112.390625 0 L 27.734375 0 Z M 27.734375 -375.109375 "/></g></g></g><g fill="#ffffff" fill-opacity="1"><g transform="translate(467.72219, 663.041903)"><g><path d="M 162.734375 2.1875 C 123.328125 2.1875 90.972656 -10.21875 65.671875 -35.03125 C 40.378906 -59.84375 27.734375 -92.679688 27.734375 -133.546875 L 27.734375 -459.03125 L 112.390625 -459.03125 L 112.390625 -358.328125 L 179.53125 -358.328125 L 179.53125 -280.234375 L 112.390625 -280.234375 L 112.390625 -132.8125 C 112.390625 -115.789062 117.738281 -101.925781 128.4375 -91.21875 C 139.144531 -80.519531 153.253906 -75.171875 170.765625 -75.171875 L 179.53125 -75.890625 L 179.53125 1.453125 Z M 162.734375 2.1875 "/></g></g></g><g fill="#ffffff" fill-opacity="1"><g transform="translate(647.239346, 663.041903)"><g><path d="M 75.890625 -102.90625 C 91.460938 -102.90625 104.601562 -97.304688 115.3125 -86.109375 C 126.5 -75.890625 132.09375 -62.753906 132.09375 -46.703125 C 132.09375 -31.140625 126.617188 -17.882812 115.671875 -6.9375 C 104.722656 4.007812 91.460938 9.484375 75.890625 9.484375 C 60.328125 9.484375 46.953125 4.132812 35.765625 -6.5625 C 30.410156 -11.914062 26.394531 -17.875 23.71875 -24.4375 C 21.039062 -31.007812 19.703125 -38.429688 19.703125 -46.703125 C 19.703125 -62.273438 25.175781 -75.535156 36.125 -86.484375 C 47.070312 -97.429688 60.328125 -102.90625 75.890625 -102.90625 Z M 75.890625 -102.90625 "/></g></g></g><g clip-path="url(#13249ba86c)"><g clip-path="url(#4a3ed41f97)"><path fill="#672cbc" d="M 157.511719 126.628906 L 282.941406 126.628906 L 282.941406 252.058594 L 157.511719 252.058594 Z M 157.511719 126.628906 " fill-opacity="1" fill-rule="nonzero"/></g></g><g clip-path="url(#b6b88225d7)"><g clip-path="url(#1f7be50a3e)"><path fill="#672cbc" d="M 660.667969 557.363281 L 786.09375 557.363281 L 786.09375 682.792969 L 660.667969 682.792969 Z M 660.667969 557.363281 " fill-opacity="1" fill-rule="nonzero"/></g></g></svg>