<svg xmlns="http://www.w3.org/2000/svg" xmlns:xlink="http://www.w3.org/1999/xlink" width="1080" zoomAndPan="magnify" viewBox="0 0 810 809.999993" height="1080" preserveAspectRatio="xMidYMid meet" version="1.0"><defs><g/><clipPath id="0ef8eaadeb"><path d="M 4.992188 4.992188 L 805.242188 4.992188 L 805.242188 805.242188 L 4.992188 805.242188 Z M 4.992188 4.992188 " clip-rule="nonzero"/></clipPath><clipPath id="ccce55e0da"><path d="M 294 221 L 805.007812 221 L 805.007812 805.007812 L 294 805.007812 Z M 294 221 " clip-rule="nonzero"/></clipPath><clipPath id="a76d78536d"><path d="M 605.003906 4.992188 L 204.996094 4.992188 C 94.535156 4.992188 4.992188 94.535156 4.992188 204.996094 L 4.992188 605.003906 C 4.992188 715.460938 94.535156 805.007812 204.996094 805.007812 L 605.003906 805.007812 C 715.460938 805.007812 805.007812 715.460938 805.007812 605.003906 L 805.007812 204.996094 C 805.007812 94.535156 715.460938 4.992188 605.003906 4.992188 Z M 605.003906 4.992188 " clip-rule="nonzero"/></clipPath></defs><g fill="#ffffff" fill-opacity="1"><g transform="translate(751.271268, 627.817568)"><g><path d="M 1 -1.234375 C 1 -1.710938 1.128906 -2.078125 1.390625 -2.328125 C 1.648438 -2.578125 2.03125 -2.703125 2.53125 -2.703125 C 3 -2.703125 3.363281 -2.570312 3.625 -2.3125 C 3.882812 -2.0625 4.015625 -1.703125 4.015625 -1.234375 C 4.015625 -0.773438 3.882812 -0.414062 3.625 -0.15625 C 3.363281 0.101562 3 0.234375 2.53125 0.234375 C 2.039062 0.234375 1.660156 0.109375 1.390625 -0.140625 C 1.128906 -0.398438 1 -0.765625 1 -1.234375 Z M 1 -1.234375 "/></g></g></g><g clip-path="url(#0ef8eaadeb)"><path fill="#672cbc" d="M 605.003906 4.992188 L 204.996094 4.992188 C 94.535156 4.992188 4.992188 94.535156 4.992188 204.996094 L 4.992188 605.003906 C 4.992188 715.460938 94.535156 805.007812 204.996094 805.007812 L 605.003906 805.007812 C 715.460938 805.007812 805.007812 715.460938 805.007812 605.003906 L 805.007812 204.996094 C 805.007812 94.535156 715.460938 4.992188 605.003906 4.992188 " fill-opacity="1" fill-rule="nonzero"/></g><g clip-path="url(#ccce55e0da)"><g clip-path="url(#a76d78536d)"><path fill="#672cbc" d="M 983.015625 544.480469 L 660.101562 221.5625 L 294.222656 589.441406 L 587.160156 882.371094 L 735.683594 759.25 L 983.015625 544.480469 " fill-opacity="1" fill-rule="nonzero"/></g></g><path fill="#d6fe00" d="M 660.101562 221.5625 C 649.417969 210.878906 635.214844 204.996094 620.105469 204.996094 C 604.996094 204.996094 590.789062 210.878906 580.101562 221.5625 L 333.269531 468.398438 L 229.894531 365.015625 C 219.210938 354.332031 205.003906 348.449219 189.894531 348.449219 C 174.78125 348.449219 160.578125 354.332031 149.894531 365.015625 C 127.839844 387.074219 127.839844 422.960938 149.894531 445.015625 L 292.746094 587.867188 C 292.902344 588.03125 293.066406 588.203125 293.265625 588.402344 C 295.976562 591.117188 298.972656 593.558594 302.148438 595.652344 C 311.398438 601.769531 322.179688 605.003906 333.3125 605.003906 C 348.425781 605.003906 362.628906 599.117188 373.300781 588.445312 C 373.824219 587.925781 648.414062 313.25 660.101562 301.558594 C 670.785156 290.875 676.667969 276.671875 676.667969 261.5625 C 676.667969 246.453125 670.785156 232.246094 660.101562 221.5625 " fill-opacity="1" fill-rule="nonzero"/></svg>