<svg xmlns="http://www.w3.org/2000/svg" xmlns:xlink="http://www.w3.org/1999/xlink" width="64" zoomAndPan="magnify" viewBox="0 0 48 48" height="64" preserveAspectRatio="xMidYMid meet" version="1.0"><defs><clipPath id="5510db1566"><path d="M 0.488281 31 L 17 31 L 17 47.019531 L 0.488281 47.019531 Z M 0.488281 31 " clip-rule="nonzero"/></clipPath><clipPath id="d40d20eda1"><path d="M 19.113281 18.625 L 28.886719 18.625 L 28.886719 28.394531 L 19.113281 28.394531 Z M 19.113281 18.625 " clip-rule="nonzero"/></clipPath><clipPath id="e5655460e8"><path d="M 24 18.625 C 21.300781 18.625 19.113281 20.8125 19.113281 23.511719 C 19.113281 26.207031 21.300781 28.394531 24 28.394531 C 26.699219 28.394531 28.886719 26.207031 28.886719 23.511719 C 28.886719 20.8125 26.699219 18.625 24 18.625 Z M 24 18.625 " clip-rule="nonzero"/></clipPath></defs><path fill="#672cbc" d="M 46.320312 1.179688 C 47.503906 9.300781 44.972656 17.859375 38.722656 24.113281 C 37.925781 24.902344 37.097656 25.636719 36.234375 26.3125 C 36.21875 36.863281 35.84375 36.953125 27.632812 45.167969 L 24.007812 31.644531 C 21.289062 32.085938 18.511719 32.105469 15.789062 31.710938 C 15.390625 28.984375 15.410156 26.210938 15.851562 23.488281 L 2.332031 19.867188 C 10.542969 11.652344 10.632812 11.277344 21.1875 11.261719 C 21.859375 10.398438 22.59375 9.570312 23.386719 8.777344 C 29.636719 2.527344 38.195312 -0.00390625 46.320312 1.179688 Z M 37.675781 9.820312 C 39.484375 11.632812 39.484375 14.566406 37.675781 16.375 C 35.867188 18.183594 32.933594 18.183594 31.125 16.375 C 29.3125 14.566406 29.3125 11.632812 31.125 9.820312 C 32.933594 8.011719 35.867188 8.011719 37.675781 9.820312 Z M 37.675781 9.820312 " fill-opacity="1" fill-rule="evenodd"/><g clip-path="url(#5510db1566)"><path fill="#672cbc" d="M 6.960938 33.664062 L 6.957031 33.667969 C 6.839844 33.875 6.734375 34.089844 6.648438 34.304688 L 0.488281 47.007812 L 13.191406 40.851562 C 13.410156 40.761719 13.621094 40.660156 13.832031 40.539062 L 13.835938 40.539062 L 13.835938 40.535156 C 14.207031 40.320312 14.5625 40.054688 14.878906 39.734375 C 16.277344 38.335938 16.683594 36.316406 16.089844 34.5625 C 15.980469 35.027344 15.746094 35.46875 15.386719 35.832031 C 15.21875 36 15.035156 36.140625 14.839844 36.253906 L 14.835938 36.253906 C 14.730469 36.316406 14.617188 36.371094 14.503906 36.414062 L 7.863281 39.632812 L 11.082031 32.996094 C 11.128906 32.878906 11.183594 32.769531 11.242188 32.660156 L 11.246094 32.660156 C 11.359375 32.464844 11.496094 32.277344 11.664062 32.113281 C 12.027344 31.75 12.46875 31.515625 12.933594 31.410156 C 11.179688 30.816406 9.164062 31.21875 7.761719 32.617188 C 7.441406 32.9375 7.175781 33.289062 6.960938 33.664062 Z M 6.960938 33.664062 " fill-opacity="1" fill-rule="evenodd"/></g><g clip-path="url(#d40d20eda1)"><g clip-path="url(#e5655460e8)"><path fill="#672cbc" d="M 19.113281 18.625 L 28.886719 18.625 L 28.886719 28.394531 L 19.113281 28.394531 Z M 19.113281 18.625 " fill-opacity="1" fill-rule="nonzero"/></g></g></svg>